<?xml version="1.0" standalone="no"?>
<!DOCTYPE svg PUBLIC "-//W3C//DTD SVG 20010904//EN"
 "http://www.w3.org/TR/2001/REC-SVG-20010904/DTD/svg10.dtd">
<svg version="1.0" xmlns="http://www.w3.org/2000/svg"
 width="1253.000000pt" height="1280.000000pt" viewBox="0 0 1253.000000 1280.000000"
 preserveAspectRatio="xMidYMid meet">
<metadata>
Created by potrace 1.15, written by Peter Selinger 2001-2017
</metadata>
<g transform="translate(0.000000,1280.000000) scale(0.100000,-0.100000)"
fill="#000000" stroke="none">
<path d="M6752 12352 c-24 -16 -62 -76 -63 -101 -1 -18 -6 -9 -19 29 l-17 55
-12 -30 c-20 -48 -171 -433 -503 -1280 -219 -560 -324 -827 -458 -1165 l-136
-345 -29 3 c-17 2 -49 16 -72 30 -22 15 -364 324 -759 687 -395 363 -853 784
-1017 935 -376 345 -420 379 -473 366 -25 -7 -51 -67 -38 -88 5 -7 -10 2 -33
20 -39 30 -60 41 -50 25 3 -5 30 -107 62 -228 31 -121 67 -260 80 -310 35
-135 79 -303 119 -457 20 -76 52 -200 72 -275 19 -76 48 -189 65 -250 98 -377
139 -536 199 -768 29 -110 65 -249 81 -310 87 -332 101 -397 88 -406 -57 -37
-35 -38 -1499 130 -773 89 -1431 161 -1463 161 -69 0 -140 -25 -117 -41 11 -8
0 -9 -37 -4 -29 3 -53 2 -53 -3 0 -8 224 -195 935 -779 1494 -1227 1451 -1191
1463 -1230 10 -32 9 -43 -9 -80 -20 -41 -40 -53 -822 -494 -441 -249 -1011
-570 -1267 -715 -256 -144 -500 -282 -542 -306 -43 -23 -78 -46 -78 -50 0 -3
23 -9 51 -13 30 -4 46 -10 39 -15 -16 -10 23 -37 70 -49 69 -18 92 -20 2325
-151 281 -17 536 -35 569 -40 60 -10 103 -31 112 -54 5 -13 -77 -195 -776
-1721 -166 -363 -347 -758 -402 -878 -55 -120 -98 -221 -95 -223 2 -3 21 5 41
17 l36 21 0 -34 c0 -22 7 -42 20 -53 19 -17 26 -18 67 -7 59 16 122 54 588
352 209 133 452 289 540 345 88 56 257 164 375 240 611 390 948 604 978 619
18 9 52 20 77 25 l44 8 16 -71 c16 -69 192 -934 355 -1746 147 -734 231 -1145
234 -1155 2 -5 12 9 22 33 l17 43 18 -47 c34 -88 78 -108 126 -56 38 40 55 78
183 407 599 1528 892 2270 914 2312 33 67 67 93 120 93 38 0 49 -8 151 -103
92 -85 612 -563 1864 -1714 110 -100 168 -148 173 -140 5 8 8 8 8 1 0 -19 99
-66 125 -60 36 9 49 60 35 138 -10 57 -94 390 -184 733 -19 72 -70 270 -115
440 -44 171 -119 459 -166 640 -47 182 -122 467 -165 635 -92 352 -98 404 -52
450 19 19 44 31 73 35 50 7 69 5 1929 -212 902 -105 1033 -114 1071 -76 30 29
20 62 -39 125 -26 28 -247 215 -492 416 -245 201 -546 449 -670 551 -124 102
-351 289 -505 415 -553 454 -561 461 -585 510 l-22 46 21 43 c12 23 38 54 59
68 36 25 255 150 1752 994 388 218 724 413 748 432 108 88 90 138 -59 162 -35
6 -215 20 -399 31 -788 47 -1710 102 -2030 120 -422 25 -474 32 -513 72 -27
26 -29 33 -25 86 5 63 -17 13 385 892 493 1077 672 1468 727 1589 94 206 114
282 80 315 -21 21 -60 20 -111 -3 -23 -11 -43 -17 -46 -15 -3 3 -499 -311
-1103 -697 -1444 -923 -1341 -859 -1378 -859 -41 0 -72 22 -96 70 -25 49 -8
-29 -245 1145 -112 556 -234 1156 -270 1335 -70 348 -85 404 -116 444 -20 26
-52 33 -77 18z"/>
</g>
</svg>
